<svg version="1.1" id="Layer_1" xmlns="http://www.w3.org/2000/svg" xmlns:xlink="http://www.w3.org/1999/xlink" x="0px" y="0px"
	 width="100%" viewBox="0 0 1024 560" enable-background="new 0 0 1024 560" xml:space="preserve">
<path fill="#000000" opacity="1.000000" stroke="none" 
	d="
M615.211243,306.812836 
	C612.100464,297.304169 607.796082,288.884491 601.238342,281.791870 
	C589.324707,268.906433 564.711365,265.792664 550.664490,276.237640 
	C539.375916,284.631622 536.205994,297.143219 537.791565,310.586487 
	C539.491028,324.995880 548.127197,335.273926 559.836121,342.990387 
	C574.578552,352.705994 589.687256,361.866547 604.417603,371.599945 
	C616.167480,379.363983 624.968933,389.682892 628.300049,403.710266 
	C635.057983,432.168274 618.435669,459.038452 588.751587,467.061523 
	C565.702881,473.291138 543.253235,470.912903 521.656921,460.548096 
	C518.293091,458.933655 516.353638,456.678009 515.995178,453.029907 
	C514.629639,439.131500 513.273376,425.232208 511.920441,411.332550 
	C511.782806,409.918304 511.975739,408.469208 513.531128,408.068390 
	C515.695068,407.510834 516.551514,409.196991 516.985840,410.830139 
	C518.485901,416.470917 520.052856,422.097229 522.563293,427.374634 
	C527.604431,437.972046 533.227173,448.309906 543.061462,455.255737 
	C558.075562,465.860046 574.392090,466.881714 590.935913,459.547211 
	C604.791992,453.404327 609.065613,441.120880 608.393799,425.941132 
	C607.607971,408.185608 598.578979,394.721954 584.066162,385.000092 
	C570.229614,375.731232 555.829468,367.289154 542.164734,357.782623 
	C527.727112,347.738495 518.037109,334.407166 517.714294,315.926483 
	C517.646606,312.052429 515.197144,312.300110 512.628723,312.300720 
	C489.298492,312.306274 465.968262,312.302551 442.638031,312.302246 
	C422.973999,312.301971 403.309937,312.304108 383.645905,312.299530 
	C382.313446,312.299225 380.978821,312.290863 379.649139,312.215912 
	C378.192841,312.133759 377.031525,311.612274 376.933685,309.912018 
	C376.836487,308.222687 377.908630,307.439240 379.351349,307.305634 
	C382.333923,307.029480 385.332367,306.924042 388.324371,306.750458 
	C399.508240,306.101624 403.683899,302.163696 403.718750,290.904938 
	C403.876984,239.746719 403.940308,188.587540 403.788696,137.429443 
	C403.745514,122.867928 398.970612,118.700363 384.237549,118.614799 
	C381.619629,118.599602 377.367584,119.938988 377.212860,116.250580 
	C377.031158,111.918404 381.524628,113.725494 383.872925,113.805077 
	C404.686401,114.510460 425.490814,114.551697 446.298706,113.703575 
	C447.792786,113.642677 449.299957,113.704956 450.791077,113.829475 
	C452.055542,113.935066 453.032501,114.512787 453.054138,115.983131 
	C453.075043,117.402344 452.246887,118.142776 450.938660,118.281937 
	C447.629395,118.633980 444.317261,118.987030 440.997437,119.206055 
	C431.164337,119.854813 426.681885,124.089973 426.300354,133.857788 
	C425.955872,142.677856 425.986847,151.515488 425.983124,160.345428 
	C425.965637,201.506592 426.019470,242.667770 425.992371,283.828918 
	C425.981598,300.191895 427.546875,304.076111 446.837280,304.512085 
	C461.298096,304.838867 475.796326,305.301086 490.280792,303.970612 
	C504.598999,302.655426 514.276489,295.038330 520.938721,282.857880 
	C523.840149,277.553131 525.560425,271.826660 526.875427,265.945831 
	C527.248535,264.277405 527.509583,261.836487 530.058899,262.314484 
	C532.517639,262.775543 531.982971,264.910675 531.791443,266.784027 
	C531.322815,271.367584 530.991211,275.965210 530.528870,281.455475 
	C541.069763,271.783020 552.915588,266.903015 566.045227,265.190186 
	C583.123596,262.962250 599.525146,265.765778 615.273010,272.601410 
	C617.549255,273.589447 619.114990,275.248383 619.275879,277.878357 
	C619.956909,289.010223 620.662781,300.140961 621.247253,311.277985 
	C621.333923,312.929474 621.995300,315.392853 619.246033,315.584076 
	C617.094482,315.733765 616.846252,313.659271 616.450256,312.052307 
	C616.052551,310.438110 615.707092,308.811035 615.211243,306.812836 
z"/>
</svg>